<svg id="Layer_1" enable-background="new 0 0 510 510" height="512" viewBox="0 0 510 510" width="512" xmlns="http://www.w3.org/2000/svg"><g><path d="m243 384-38.762-51.684-2.321-29.316 26.834 12.001 38.249 50.999z" fill="#fc6363"/><path d="m145.167 510h-105l64.833-195 52.5-10 52.5 10z" fill="#00c200"/><path d="m360 165-15 10-15-10v-45l15-10 15 10z" fill="#d9e5ff"/><path d="m210 165-15 10-15-10v-45l15-10 15 10z" fill="#ecf2ff"/><path d="m45 180h-15c0-20.194 0-63.236 0-75 0-33.083 26.915-60 60-60h16.899l13.101 15-13.102 15c-3.987 0-12.331 0-16.898 0-16.541 0-30 13.457-30 30v61.501z" fill="#fad42b"/><path d="m75 165c-41.42 0-75 33.577-75 75 0 41.42 33.577 75 75 75h195l10-75-10-75c-10.822 0-184.178 0-195 0z" fill="#76dd00"/><path d="m454.155 195-22 30-2 30h79.845v-60z" fill="#008933"/><path d="m120 270h-30v-60h90v30h-60z" fill="#00c200"/><path d="m165 0c-39.207 0-68.079 37.264-58.017 75.325 6.793 25.697 30.241 44.675 58.017 44.675h105l10-60-10-60c-28.278 0-88.527 0-105 0z" fill="#fc6363"/><path d="m210 225v30h60l10-15-10-15z" fill="#00c200"/><path d="m375 0c-28.278 0-88.527 0-105 0v120h105c33.083 0 60-26.915 60-60 0-33.083-26.915-60-60-60z" fill="#e63950"/><path d="m466.155 165h-196.155v150h136.155z" fill="#00c200"/><path d="m270 225h90v30h-90z" fill="#008933"/></g></svg>